<svg xmlns="http://www.w3.org/2000/svg" width="1280" height="860" viewBox="0 0 1280 860" role="img">

    <defs>
      <marker id="arrow" markerWidth="10" markerHeight="10" refX="9" refY="3" orient="auto" markerUnits="strokeWidth">
        <path d="M0,0 L9,3 L0,6 Z" fill="#334155"/>
      </marker>
      <filter id="softShadow" x="-10%" y="-10%" width="120%" height="130%">
        <feDropShadow dx="0" dy="2" stdDeviation="2" flood-color="#475569" flood-opacity="0.16"/>
      </filter>
    </defs>
    
<rect x="0" y="0" width="1280" height="860" rx="0" fill="#F8FAFC" stroke="#F8FAFC" stroke-width="1.4" opacity="1"/>
<text x="60" y="52" font-family="Microsoft YaHei, SimHei, Arial, sans-serif" font-size="26" font-weight="700" fill="#0F172A" text-anchor="start" >MFC 界面 UI 图</text>
<text x="60" y="82" font-family="Microsoft YaHei, SimHei, Arial, sans-serif" font-size="14" font-weight="400" fill="#475569" text-anchor="start" >主界面按 Digitaltemperaturesensor.rc 的控件布局重绘，并补充历史数据与参数设置弹窗。</text>
<rect x="65" y="120" width="720" height="475" rx="8" fill="#FFFFFF" stroke="#1E293B" stroke-width="1.8" opacity="1"/>
<rect x="65" y="120" width="720" height="34" rx="8" fill="#E2E8F0" stroke="#1E293B" stroke-width="1.8" opacity="1"/>
<text x="85" y="143" font-family="Microsoft YaHei, SimHei, Arial, sans-serif" font-size="15" font-weight="700" fill="#0F172A" text-anchor="start" >Digitaltemperaturesensor 主窗口</text>
<rect x="85" y="168" width="150" height="28" rx="4" fill="#F8FAFC" stroke="#94A3B8" stroke-width="1" opacity="1"/><text x="160.0" y="187.0" font-family="Microsoft YaHei, SimHei, Arial, sans-serif" font-size="13" font-weight="500" fill="#172033" text-anchor="middle" >参数设置管理</text>
<rect x="245" y="168" width="150" height="28" rx="4" fill="#F8FAFC" stroke="#94A3B8" stroke-width="1" opacity="1"/><text x="320.0" y="187.0" font-family="Microsoft YaHei, SimHei, Arial, sans-serif" font-size="13" font-weight="500" fill="#172033" text-anchor="middle" >公司信息管理</text>
<rect x="635" y="208" width="120" height="34" rx="4" fill="#F8FAFC" stroke="#94A3B8" stroke-width="1" opacity="1"/><text x="695.0" y="230.0" font-family="Microsoft YaHei, SimHei, Arial, sans-serif" font-size="13" font-weight="500" fill="#172033" text-anchor="middle" >查询历史</text>
<rect x="85" y="218" width="175" height="118" rx="6" fill="#FFFFFF" stroke="#CBD5E1" stroke-width="1.2" opacity="1"/>
<text x="105" y="242" font-family="Microsoft YaHei, SimHei, Arial, sans-serif" font-size="14" font-weight="700" fill="#334155" text-anchor="start" >操作按钮</text>
<rect x="112" y="258" width="105" height="28" rx="4" fill="#F8FAFC" stroke="#94A3B8" stroke-width="1" opacity="1"/><text x="164.5" y="277.0" font-family="Microsoft YaHei, SimHei, Arial, sans-serif" font-size="13" font-weight="500" fill="#172033" text-anchor="middle" >打开串口</text>
<rect x="112" y="294" width="105" height="28" rx="4" fill="#F8FAFC" stroke="#94A3B8" stroke-width="1" opacity="1"/><text x="164.5" y="313.0" font-family="Microsoft YaHei, SimHei, Arial, sans-serif" font-size="13" font-weight="500" fill="#172033" text-anchor="middle" >开始采集</text>
<rect x="85" y="358" width="175" height="190" rx="6" fill="#FFFFFF" stroke="#CBD5E1" stroke-width="1.2" opacity="1"/>
<text x="105" y="382" font-family="Microsoft YaHei, SimHei, Arial, sans-serif" font-size="14" font-weight="700" fill="#334155" text-anchor="start" >设备列表</text>
<rect x="105" y="396" width="44" height="28" rx="4" fill="#F8FAFC" stroke="#94A3B8" stroke-width="1" opacity="1"/><text x="127.0" y="415.0" font-family="Microsoft YaHei, SimHei, Arial, sans-serif" font-size="13" font-weight="500" fill="#172033" text-anchor="middle" >增加</text>
<rect x="155" y="396" width="44" height="28" rx="4" fill="#F8FAFC" stroke="#94A3B8" stroke-width="1" opacity="1"/><text x="177.0" y="415.0" font-family="Microsoft YaHei, SimHei, Arial, sans-serif" font-size="13" font-weight="500" fill="#172033" text-anchor="middle" >修改</text>
<rect x="205" y="396" width="44" height="28" rx="4" fill="#F8FAFC" stroke="#94A3B8" stroke-width="1" opacity="1"/><text x="227.0" y="415.0" font-family="Microsoft YaHei, SimHei, Arial, sans-serif" font-size="13" font-weight="500" fill="#172033" text-anchor="middle" >删除</text>
<rect x="105" y="448" width="135" height="78" rx="4" fill="#F8FAFC" stroke="#94A3B8" stroke-width="1" opacity="1"/>
<text x="172" y="475" font-family="Microsoft YaHei, SimHei, Arial, sans-serif" font-size="12" font-weight="400" fill="#334155" text-anchor="middle" >设备A (站号1)</text>
<text x="172" y="497" font-family="Microsoft YaHei, SimHei, Arial, sans-serif" font-size="12" font-weight="400" fill="#334155" text-anchor="middle" >设备B (站号2)</text>
<rect x="280" y="245" width="475" height="303" rx="4" fill="#F8FAFC" stroke="#94A3B8" stroke-width="1.2" opacity="1"/>
<text x="300" y="272" font-family="Microsoft YaHei, SimHei, Arial, sans-serif" font-size="14" font-weight="700" fill="#334155" text-anchor="start" >实时采集显示区 IDC_EDIT_SHOW</text>
<text x="304" y="310" font-family="Microsoft YaHei, SimHei, Arial, sans-serif" font-size="12" font-weight="400" fill="#475569" text-anchor="start" >[2026-05-08 21:00:00] 设备A 站号1 温度：25.6 ℃ 状态：正常</text>
<text x="304" y="334" font-family="Microsoft YaHei, SimHei, Arial, sans-serif" font-size="12" font-weight="400" fill="#475569" text-anchor="start" >[2026-05-08 21:00:01] 设备A 站号1 温度：25.7 ℃ 状态：正常</text>
<text x="304" y="358" font-family="Microsoft YaHei, SimHei, Arial, sans-serif" font-size="12" font-weight="400" fill="#475569" text-anchor="start" >[2026-05-08 21:00:02] 设备A 站号1 温度：26.0 ℃ 状态：高温报警...</text>
<rect x="75" y="558" width="690" height="24" rx="3" fill="#F1F5F9" stroke="#CBD5E1" stroke-width="1" opacity="1"/>
<text x="88" y="575" font-family="Microsoft YaHei, SimHei, Arial, sans-serif" font-size="12" font-weight="500" fill="#334155" text-anchor="start" >状态栏 IDC_EDIT3：正在采集温度 / 通信异常 / 串口已关闭</text>
<rect x="835" y="120" width="380" height="315" rx="8" fill="#FFFFFF" stroke="#0F766E" stroke-width="1.8" opacity="1"/>
<rect x="835" y="120" width="380" height="32" rx="8" fill="#CCFBF1" stroke="#0F766E" stroke-width="1.8" opacity="1"/>
<text x="855" y="142" font-family="Microsoft YaHei, SimHei, Arial, sans-serif" font-size="15" font-weight="700" fill="#0F766E" text-anchor="start" >历史数据窗口 HistData</text>
<rect x="855" y="170" width="120" height="22" rx="3" fill="#F8FAFC" stroke="#94A3B8" stroke-width="1" opacity="1"/>
<text x="862" y="186" font-family="Microsoft YaHei, SimHei, Arial, sans-serif" font-size="11" font-weight="500" fill="#334155" text-anchor="start" >起始时间</text>
<rect x="990" y="170" width="120" height="22" rx="3" fill="#F8FAFC" stroke="#94A3B8" stroke-width="1" opacity="1"/>
<text x="997" y="186" font-family="Microsoft YaHei, SimHei, Arial, sans-serif" font-size="11" font-weight="500" fill="#334155" text-anchor="start" >截止时间</text>
<rect x="1125" y="168" width="38" height="24" rx="4" fill="#F8FAFC" stroke="#94A3B8" stroke-width="1" opacity="1"/><text x="1144.0" y="185.0" font-family="Microsoft YaHei, SimHei, Arial, sans-serif" font-size="13" font-weight="500" fill="#172033" text-anchor="middle" >查询</text>
<rect x="1168" y="168" width="38" height="24" rx="4" fill="#F8FAFC" stroke="#94A3B8" stroke-width="1" opacity="1"/><text x="1187.0" y="185.0" font-family="Microsoft YaHei, SimHei, Arial, sans-serif" font-size="13" font-weight="500" fill="#172033" text-anchor="middle" >导出</text>
<rect x="855" y="206" width="48" height="24" rx="4" fill="#F8FAFC" stroke="#94A3B8" stroke-width="1" opacity="1"/><text x="879.0" y="223.0" font-family="Microsoft YaHei, SimHei, Arial, sans-serif" font-size="13" font-weight="500" fill="#172033" text-anchor="middle" >列表</text>
<rect x="910" y="206" width="48" height="24" rx="4" fill="#F8FAFC" stroke="#94A3B8" stroke-width="1" opacity="1"/><text x="934.0" y="223.0" font-family="Microsoft YaHei, SimHei, Arial, sans-serif" font-size="13" font-weight="500" fill="#172033" text-anchor="middle" >曲线</text>
<rect x="855" y="240" width="335" height="145" rx="4" fill="#F8FAFC" stroke="#94A3B8" stroke-width="1" opacity="1"/>
<path d="M875 355 L930 315 L985 330 L1040 290 L1095 305 L1165 265" stroke="#2563EB" stroke-width="2.2" fill="none"/>
<circle cx="875" cy="355" r="4" fill="#2563EB"/>
<circle cx="930" cy="315" r="4" fill="#2563EB"/>
<circle cx="985" cy="330" r="4" fill="#2563EB"/>
<circle cx="1040" cy="290" r="4" fill="#2563EB"/>
<circle cx="1095" cy="305" r="4" fill="#2563EB"/>
<circle cx="1165" cy="265" r="4" fill="#2563EB"/>
<text x="870" y="260" font-family="Microsoft YaHei, SimHei, Arial, sans-serif" font-size="12" font-weight="500" fill="#334155" text-anchor="start" >曲线视图 / 列表视图共用区域</text>
<rect x="905" y="397" width="58" height="24" rx="4" fill="#F8FAFC" stroke="#94A3B8" stroke-width="1" opacity="1"/><text x="934.0" y="414.0" font-family="Microsoft YaHei, SimHei, Arial, sans-serif" font-size="13" font-weight="500" fill="#172033" text-anchor="middle" >首页</text>
<rect x="982" y="397" width="58" height="24" rx="4" fill="#F8FAFC" stroke="#94A3B8" stroke-width="1" opacity="1"/><text x="1011.0" y="414.0" font-family="Microsoft YaHei, SimHei, Arial, sans-serif" font-size="13" font-weight="500" fill="#172033" text-anchor="middle" >上一页</text>
<text x="1062" y="414" font-family="Microsoft YaHei, SimHei, Arial, sans-serif" font-size="12" font-weight="600" fill="#334155" text-anchor="middle" >1 / 1</text>
<rect x="1090" y="397" width="58" height="24" rx="4" fill="#F8FAFC" stroke="#94A3B8" stroke-width="1" opacity="1"/><text x="1119.0" y="414.0" font-family="Microsoft YaHei, SimHei, Arial, sans-serif" font-size="13" font-weight="500" fill="#172033" text-anchor="middle" >下一页</text>
<rect x="1155" y="397" width="58" height="24" rx="4" fill="#F8FAFC" stroke="#94A3B8" stroke-width="1" opacity="1"/><text x="1184.0" y="414.0" font-family="Microsoft YaHei, SimHei, Arial, sans-serif" font-size="13" font-weight="500" fill="#172033" text-anchor="middle" >末页</text>
<rect x="835" y="485" width="380" height="255" rx="8" fill="#FFFFFF" stroke="#7C3AED" stroke-width="1.8" opacity="1"/>
<rect x="835" y="485" width="380" height="32" rx="8" fill="#EDE9FE" stroke="#7C3AED" stroke-width="1.8" opacity="1"/>
<text x="855" y="507" font-family="Microsoft YaHei, SimHei, Arial, sans-serif" font-size="15" font-weight="700" fill="#6D28D9" text-anchor="start" >参数设置窗口 ParaSet</text>
<rect x="865" y="540" width="310" height="135" rx="6" fill="#FFFFFF" stroke="#DDD6FE" stroke-width="1.2" opacity="1"/>
<text x="885" y="564" font-family="Microsoft YaHei, SimHei, Arial, sans-serif" font-size="14" font-weight="700" fill="#334155" text-anchor="start" >通信参数</text>
<text x="895" y="601" font-family="Microsoft YaHei, SimHei, Arial, sans-serif" font-size="12" font-weight="500" fill="#334155" text-anchor="start" >串口号</text>
<rect x="1000" y="585" width="130" height="22" rx="3" fill="#F8FAFC" stroke="#94A3B8" stroke-width="1" opacity="1"/>
<text x="1010" y="601" font-family="Microsoft YaHei, SimHei, Arial, sans-serif" font-size="12" font-weight="400" fill="#475569" text-anchor="start" >COM4</text>
<text x="895" y="629" font-family="Microsoft YaHei, SimHei, Arial, sans-serif" font-size="12" font-weight="500" fill="#334155" text-anchor="start" >波特率</text>
<rect x="1000" y="613" width="130" height="22" rx="3" fill="#F8FAFC" stroke="#94A3B8" stroke-width="1" opacity="1"/>
<text x="1010" y="629" font-family="Microsoft YaHei, SimHei, Arial, sans-serif" font-size="12" font-weight="400" fill="#475569" text-anchor="start" >9600</text>
<text x="895" y="657" font-family="Microsoft YaHei, SimHei, Arial, sans-serif" font-size="12" font-weight="500" fill="#334155" text-anchor="start" >Modbus站号</text>
<rect x="1000" y="641" width="130" height="22" rx="3" fill="#F8FAFC" stroke="#94A3B8" stroke-width="1" opacity="1"/>
<text x="1010" y="657" font-family="Microsoft YaHei, SimHei, Arial, sans-serif" font-size="12" font-weight="400" fill="#475569" text-anchor="start" >1</text>
<text x="895" y="685" font-family="Microsoft YaHei, SimHei, Arial, sans-serif" font-size="12" font-weight="500" fill="#334155" text-anchor="start" >温度补偿</text>
<rect x="1000" y="669" width="130" height="22" rx="3" fill="#F8FAFC" stroke="#94A3B8" stroke-width="1" opacity="1"/>
<text x="1010" y="685" font-family="Microsoft YaHei, SimHei, Arial, sans-serif" font-size="12" font-weight="400" fill="#475569" text-anchor="start" >0 (0.1℃)</text>
<text x="865" y="705" font-family="Microsoft YaHei, SimHei, Arial, sans-serif" font-size="12" font-weight="500" fill="#64748B" text-anchor="start" >格式：8 位数据、无校验、1 位停止</text>
<rect x="1040" y="700" width="72" height="28" rx="4" fill="#F8FAFC" stroke="#94A3B8" stroke-width="1" opacity="1"/><text x="1076.0" y="719.0" font-family="Microsoft YaHei, SimHei, Arial, sans-serif" font-size="13" font-weight="500" fill="#172033" text-anchor="middle" >保存设置</text>
<rect x="1120" y="700" width="60" height="28" rx="4" fill="#F8FAFC" stroke="#94A3B8" stroke-width="1" opacity="1"/><text x="1150.0" y="719.0" font-family="Microsoft YaHei, SimHei, Arial, sans-serif" font-size="13" font-weight="500" fill="#172033" text-anchor="middle" >取消</text>
<path d="M755 225 C795 225, 810 245, 835 270" stroke="#334155" stroke-width="1.8" fill="none" marker-end="url(#arrow)" stroke-dasharray="6 5"/>
<text x="790" y="214" font-family="Microsoft YaHei, SimHei, Arial, sans-serif" font-size="12" font-weight="500" fill="#0F766E" text-anchor="start" >查询历史</text>
<path d="M235 182 C500 100, 740 535, 835 565" stroke="#334155" stroke-width="1.8" fill="none" marker-end="url(#arrow)" stroke-dasharray="6 5"/>
<text x="565" y="151" font-family="Microsoft YaHei, SimHei, Arial, sans-serif" font-size="12" font-weight="500" fill="#7C3AED" text-anchor="middle" >参数设置</text>
<path d="M217 274 C410 680, 835 715, 1040 714" stroke="#334155" stroke-width="1.8" fill="none" marker-end="url(#arrow)" stroke-dasharray="6 5"/>
<text x="475" y="720" font-family="Microsoft YaHei, SimHei, Arial, sans-serif" font-size="12" font-weight="500" fill="#64748B" text-anchor="start" >保存后影响串口打开、采集和寄存器写入</text>
</svg>
