<svg xmlns="http://www.w3.org/2000/svg" width="1280" height="900" viewBox="0 0 1280 900" role="img">

    <defs>
      <marker id="arrow" markerWidth="10" markerHeight="10" refX="9" refY="3" orient="auto" markerUnits="strokeWidth">
        <path d="M0,0 L9,3 L0,6 Z" fill="#334155"/>
      </marker>
      <filter id="softShadow" x="-10%" y="-10%" width="120%" height="130%">
        <feDropShadow dx="0" dy="2" stdDeviation="2" flood-color="#475569" flood-opacity="0.16"/>
      </filter>
    </defs>
    
<rect x="0" y="0" width="1280" height="900" rx="0" fill="#F8FAFC" stroke="#F8FAFC" stroke-width="1.4" opacity="1"/>
<text x="60" y="52" font-family="Microsoft YaHei, SimHei, Arial, sans-serif" font-size="26" font-weight="700" fill="#0F172A" text-anchor="start" >数字温度传感器软件流程图</text>
<text x="60" y="82" font-family="Microsoft YaHei, SimHei, Arial, sans-serif" font-size="14" font-weight="400" fill="#475569" text-anchor="start" >依据 CDigitaltemperaturesensorDlg、CSerialPort 与 HistData 的实际调用链绘制</text>
<rect x="500" y="115" width="280" height="62" rx="8" fill="#FFFFFF" stroke="#64748B" stroke-width="1.4" opacity="1"/>
<text x="640.0" y="141.5" font-family="Microsoft YaHei, SimHei, Arial, sans-serif" font-size="14" font-weight="500" fill="#172033" text-anchor="middle" >程序启动</text>
<text x="640.0" y="160.5" font-family="Microsoft YaHei, SimHei, Arial, sans-serif" font-size="14" font-weight="500" fill="#172033" text-anchor="middle" >OnInitDialog</text>
<rect x="500" y="205" width="280" height="72" rx="8" fill="#EEF6FF" stroke="#2563EB" stroke-width="1.4" opacity="1"/>
<text x="640.0" y="236.5" font-family="Microsoft YaHei, SimHei, Arial, sans-serif" font-size="14" font-weight="500" fill="#172033" text-anchor="middle" >读取配置</text>
<text x="640.0" y="255.5" font-family="Microsoft YaHei, SimHei, Arial, sans-serif" font-size="14" font-weight="500" fill="#172033" text-anchor="middle" >LoadConfig / RebuildDeviceList</text>
<rect x="500" y="315" width="280" height="78" rx="8" fill="#F0FDF4" stroke="#16A34A" stroke-width="1.4" opacity="1"/>
<text x="640.0" y="349.5" font-family="Microsoft YaHei, SimHei, Arial, sans-serif" font-size="14" font-weight="500" fill="#172033" text-anchor="middle" >选择设备并打开串口</text>
<text x="640.0" y="368.5" font-family="Microsoft YaHei, SimHei, Arial, sans-serif" font-size="14" font-weight="500" fill="#172033" text-anchor="middle" >CreateFile + DCB + timeout</text>
<rect x="500" y="445" width="280" height="76" rx="8" fill="#FFF7ED" stroke="#EA580C" stroke-width="1.4" opacity="1"/>
<text x="640.0" y="478.5" font-family="Microsoft YaHei, SimHei, Arial, sans-serif" font-size="14" font-weight="500" fill="#172033" text-anchor="middle" >开始采集</text>
<text x="640.0" y="497.5" font-family="Microsoft YaHei, SimHei, Arial, sans-serif" font-size="14" font-weight="500" fill="#172033" text-anchor="middle" >SetTimer(1, interval)</text>
<rect x="500" y="575" width="280" height="80" rx="8" fill="#FFFFFF" stroke="#64748B" stroke-width="1.4" opacity="1"/>
<text x="640.0" y="610.5" font-family="Microsoft YaHei, SimHei, Arial, sans-serif" font-size="14" font-weight="500" fill="#172033" text-anchor="middle" >发送 Modbus 读取命令</text>
<text x="640.0" y="629.5" font-family="Microsoft YaHei, SimHei, Arial, sans-serif" font-size="14" font-weight="500" fill="#172033" text-anchor="middle" >03H, 寄存器 0000H, CRC16</text>
<rect x="500" y="710" width="280" height="82" rx="8" fill="#F5F3FF" stroke="#7C3AED" stroke-width="1.4" opacity="1"/>
<text x="640.0" y="746.5" font-family="Microsoft YaHei, SimHei, Arial, sans-serif" font-size="14" font-weight="500" fill="#172033" text-anchor="middle" >解析响应并更新界面</text>
<text x="640.0" y="765.5" font-family="Microsoft YaHei, SimHei, Arial, sans-serif" font-size="14" font-weight="500" fill="#172033" text-anchor="middle" >CRC / raw÷10 / 状态文本</text>
<line x1="640" y1="177" x2="640" y2="205" stroke="#334155" stroke-width="1.8" marker-end="url(#arrow)"/>
<line x1="640" y1="277" x2="640" y2="315" stroke="#334155" stroke-width="1.8" marker-end="url(#arrow)"/>
<line x1="640" y1="393" x2="640" y2="445" stroke="#334155" stroke-width="1.8" marker-end="url(#arrow)"/>
<line x1="640" y1="521" x2="640" y2="575" stroke="#334155" stroke-width="1.8" marker-end="url(#arrow)"/>
<line x1="640" y1="655" x2="640" y2="710" stroke="#334155" stroke-width="1.8" marker-end="url(#arrow)"/>
<polygon points="230,309.0 320.0,355 230,401.0 140.0,355" fill="#FFFFFF" stroke="#64748B" stroke-width="1.4"/>
<text x="230" y="350" font-family="Microsoft YaHei, SimHei, Arial, sans-serif" font-size="14" font-weight="600" fill="#172033" text-anchor="middle" >串口打开</text>
<text x="230" y="368" font-family="Microsoft YaHei, SimHei, Arial, sans-serif" font-size="14" font-weight="600" fill="#172033" text-anchor="middle" >成功？</text>
<path d="M500 354 C430 354, 360 354, 321 354" stroke="#334155" stroke-width="1.8" fill="none" marker-end="url(#arrow)"/>
<path d="M230 401 C230 445, 335 477, 500 477" stroke="#334155" stroke-width="1.8" fill="none" marker-end="url(#arrow)"/>
<text x="375" y="337" font-family="Microsoft YaHei, SimHei, Arial, sans-serif" font-size="13" font-weight="500" fill="#15803D" text-anchor="middle" >成功</text>
<text x="282" y="440" font-family="Microsoft YaHei, SimHei, Arial, sans-serif" font-size="13" font-weight="500" fill="#B91C1C" text-anchor="start" >否：显示错误并写日志</text>
<polygon points="960,567.0 1055.0,615 960,663.0 865.0,615" fill="#FFFFFF" stroke="#64748B" stroke-width="1.4"/>
<text x="960" y="610" font-family="Microsoft YaHei, SimHei, Arial, sans-serif" font-size="14" font-weight="600" fill="#172033" text-anchor="middle" >收到有效</text>
<text x="960" y="628" font-family="Microsoft YaHei, SimHei, Arial, sans-serif" font-size="14" font-weight="600" fill="#172033" text-anchor="middle" >响应？</text>
<path d="M780 615 C840 615, 870 615, 865 615" stroke="#334155" stroke-width="1.8" fill="none" marker-end="url(#arrow)"/>
<path d="M960 663 C960 710, 890 746, 780 746" stroke="#334155" stroke-width="1.8" fill="none" marker-end="url(#arrow)"/>
<text x="833" y="597" font-family="Microsoft YaHei, SimHei, Arial, sans-serif" font-size="13" font-weight="500" fill="#475569" text-anchor="middle" >读取</text>
<text x="995" y="694" font-family="Microsoft YaHei, SimHei, Arial, sans-serif" font-size="13" font-weight="500" fill="#15803D" text-anchor="middle" >是</text>
<rect x="895" y="735" width="250" height="76" rx="8" fill="#FEF2F2" stroke="#DC2626" stroke-width="1.4" opacity="1"/>
<text x="1020.0" y="768.5" font-family="Microsoft YaHei, SimHei, Arial, sans-serif" font-size="14" font-weight="500" fill="#172033" text-anchor="middle" >通信异常处理</text>
<text x="1020.0" y="787.5" font-family="Microsoft YaHei, SimHei, Arial, sans-serif" font-size="14" font-weight="500" fill="#172033" text-anchor="middle" >超时 / 长度 / 站号 / 功能码 / CRC</text>
<path d="M960 663 C960 690, 1020 703, 1020 735" stroke="#334155" stroke-width="1.8" fill="none" marker-end="url(#arrow)"/>
<text x="1028" y="700" font-family="Microsoft YaHei, SimHei, Arial, sans-serif" font-size="13" font-weight="500" fill="#B91C1C" text-anchor="start" >否</text>
<rect x="120" y="555" width="250" height="74" rx="8" fill="#ECFEFF" stroke="#0891B2" stroke-width="1.4" opacity="1"/>
<text x="245.0" y="587.5" font-family="Microsoft YaHei, SimHei, Arial, sans-serif" font-size="14" font-weight="500" fill="#172033" text-anchor="middle" >历史数据</text>
<text x="245.0" y="606.5" font-family="Microsoft YaHei, SimHei, Arial, sans-serif" font-size="14" font-weight="500" fill="#172033" text-anchor="middle" >AddHistoryRecord / TrimHistory</text>
<path d="M500 748 C420 748, 370 610, 370 594" stroke="#334155" stroke-width="1.8" fill="none" marker-end="url(#arrow)"/>
<line x1="370" y1="594" x2="370" y2="592" stroke="#334155" stroke-width="1.8"/>
<line x1="370" y1="592" x2="370" y2="592" stroke="#334155" stroke-width="1.8"/>
<path d="M500 748 C410 748, 370 626, 370 592" stroke="#334155" stroke-width="1.8" fill="none" marker-end="url(#arrow)"/>
<line x1="370" y1="592" x2="370" y2="592" stroke="#334155" stroke-width="1.8"/>
<path d="M500 748 C425 748, 370 620, 370 592" stroke="#334155" stroke-width="1.8" fill="none" marker-end="url(#arrow)"/>
<path d="M500 748 C410 748, 365 617, 370 592" stroke="#334155" stroke-width="1.8" fill="none" marker-end="url(#arrow)"/>
<path d="M500 748 C405 748, 366 628, 370 629" stroke="#334155" stroke-width="1.8" fill="none"/>
<line x1="370" y1="592" x2="370" y2="592" stroke="#334155" stroke-width="1.8" marker-end="url(#arrow)"/>
<path d="M500 748 C420 748, 365 610, 370 592" stroke="#334155" stroke-width="1.8" fill="none" marker-end="url(#arrow)"/>
<rect x="120" y="680" width="250" height="74" rx="8" fill="#ECFEFF" stroke="#0891B2" stroke-width="1.4" opacity="1"/>
<text x="245.0" y="712.5" font-family="Microsoft YaHei, SimHei, Arial, sans-serif" font-size="14" font-weight="500" fill="#172033" text-anchor="middle" >历史查询窗口</text>
<text x="245.0" y="731.5" font-family="Microsoft YaHei, SimHei, Arial, sans-serif" font-size="14" font-weight="500" fill="#172033" text-anchor="middle" >筛选 / 分页 / 列表 / 曲线 / 导出 CSV</text>
<line x1="245" y1="629" x2="245" y2="680" stroke="#334155" stroke-width="1.8" marker-end="url(#arrow)"/>
<rect x="895" y="205" width="250" height="76" rx="8" fill="#FAF5FF" stroke="#9333EA" stroke-width="1.4" opacity="1"/>
<text x="1020.0" y="238.5" font-family="Microsoft YaHei, SimHei, Arial, sans-serif" font-size="14" font-weight="500" fill="#172033" text-anchor="middle" >参数设置</text>
<text x="1020.0" y="257.5" font-family="Microsoft YaHei, SimHei, Arial, sans-serif" font-size="14" font-weight="500" fill="#172033" text-anchor="middle" >COM / 波特率 / 站号 / 校准</text>
<rect x="895" y="315" width="250" height="76" rx="8" fill="#FAF5FF" stroke="#9333EA" stroke-width="1.4" opacity="1"/>
<text x="1020.0" y="348.5" font-family="Microsoft YaHei, SimHei, Arial, sans-serif" font-size="14" font-weight="500" fill="#172033" text-anchor="middle" >写传感器寄存器</text>
<text x="1020.0" y="367.5" font-family="Microsoft YaHei, SimHei, Arial, sans-serif" font-size="14" font-weight="500" fill="#172033" text-anchor="middle" >06H: 0013H / 0014H / 0015H</text>
<line x1="1020" y1="281" x2="1020" y2="315" stroke="#334155" stroke-width="1.8" marker-end="url(#arrow)"/>
<path d="M895 353 C845 353, 815 353, 780 353" stroke="#334155" stroke-width="1.8" fill="none" marker-end="url(#arrow)" stroke-dasharray="6 5"/>
<text x="1019" y="426" font-family="Microsoft YaHei, SimHei, Arial, sans-serif" font-size="13" font-weight="400" fill="#475569" text-anchor="middle" >参数改动时可写入硬件；波特率变化后要求重新开串口</text>
<path d="M640 792 C640 842, 940 840, 940 811" stroke="#334155" stroke-width="1.8" fill="none" marker-end="url(#arrow)" stroke-dasharray="6 5"/>
<text x="735" y="850" font-family="Microsoft YaHei, SimHei, Arial, sans-serif" font-size="13" font-weight="500" fill="#475569" text-anchor="middle" >定时器继续下一轮轮询，直到点击“停止采集”</text>
</svg>
